# This file uses centimeters as units for non-parametric coordinates.

mtllib puerta.mtl
g default
v -0.000166 -0.804912 0.062338
v 1.411681 -0.807518 0.062338
v -0.002771 0.824394 0.062338
v 1.409076 0.821789 0.062338
v -0.002771 0.824394 -0.062338
v 1.409076 0.821789 -0.062338
v -0.000166 -0.804912 -0.062338
v 1.411681 -0.807518 -0.062338
vt -0.003951 0.002641
vt 0.989995 -0.000874
vt 0.000407 1.002611
vt 1.014202 1.008749
vt -0.013999 2.291887
vt 1.011441 2.293661
vt 0.049849 0.695389
vt 1.006636 0.689797
vt -0.001758 0.111892
vt 0.992188 0.108377
vt 1.348340 0.673778
vt 1.261441 2.043661
vt -0.108447 0.679370
vt -0.073771 2.041887
vn 0.000000 0.000000 1.000000
vn 0.000000 0.000000 1.000000
vn 0.000000 0.000000 1.000000
vn 0.000000 0.000000 1.000000
vn 0.001845 0.999998 0.000000
vn 0.001845 0.999998 0.000000
vn 0.001845 0.999998 0.000000
vn 0.001845 0.999998 0.000000
vn 0.000000 0.000000 -1.000000
vn 0.000000 0.000000 -1.000000
vn 0.000000 0.000000 -1.000000
vn 0.000000 0.000000 -1.000000
vn -0.001845 -0.999998 0.000000
vn -0.001845 -0.999998 0.000000
vn -0.001845 -0.999998 0.000000
vn -0.001845 -0.999998 0.000000
vn 0.999999 0.001599 0.000000
vn 0.999999 0.001599 0.000000
vn 0.999999 0.001599 0.000000
vn 0.999999 0.001599 0.000000
vn -0.999999 -0.001599 0.000000
vn -0.999999 -0.001599 0.000000
vn -0.999999 -0.001599 0.000000
vn -0.999999 -0.001599 0.000000
s off
g pCube58
usemtl lambert48SG
f 1/1/1 2/2/2 4/4/3 3/3/4
f 3/3/5 4/4/6 6/6/7 5/5/8
f 5/5/9 6/6/10 8/8/11 7/7/12
f 7/7/13 8/8/14 2/10/15 1/9/16
f 2/2/17 8/11/18 6/12/19 4/4/20
f 7/13/21 1/1/22 3/3/23 5/14/24
