# This file uses centimeters as units for non-parametric coordinates.

mtllib astra.mtl
g default
v -0.386920 0.683177 0.251721
v -0.087293 0.683177 0.251721
v -0.386920 1.415068 0.251721
v -0.087293 1.415068 0.251721
v -0.386920 1.415068 -0.242420
v -0.087293 1.415068 -0.242420
v -0.386920 0.683177 -0.242420
v -0.087293 0.683177 -0.242420
v -0.386920 1.415068 -0.242420
v -0.087293 1.415068 -0.242420
v -0.087293 0.683177 -0.242420
v -0.386920 0.683177 -0.242420
v -0.386920 0.683177 0.251721
v -0.386920 1.415068 0.251721
v -0.386920 0.683177 -0.242420
v -0.386920 1.415068 -0.242420
v -0.386920 0.683177 0.251721
v -0.087293 0.683177 0.251721
v -0.087293 1.415068 0.251721
v -0.386920 1.415068 0.251721
v -0.087293 1.415068 0.251721
v -0.087293 1.415068 -0.242420
v -0.087293 0.683177 -0.242420
v -0.087293 0.683177 0.251721
vt 0.494705 0.210839
vt 0.494705 0.413748
vt 0.235494 0.211119
vt 0.318487 0.211119
vt 0.235494 0.415049
vt 0.318487 0.415049
vt 0.060892 0.210502
vt 0.060892 0.411868
vt 0.321563 0.413748
vt 0.233834 0.411868
vt 0.233834 0.210502
vt 0.321563 0.210839
vt 0.064117 0.200954
vt 0.322962 0.125844
vt 0.064117 0.128561
vt 0.322962 0.205836
vt 0.498836 0.210332
vt 0.584490 0.210332
vt 0.584490 0.411601
vt 0.498836 0.411601
vt 0.500746 0.125844
vt 0.500746 0.205836
vt 0.228516 0.128561
vt 0.228516 0.200954
vn 0.000000 0.000000 1.000000
vn 0.000000 0.000000 1.000000
vn 0.000000 0.000000 1.000000
vn 0.000000 0.000000 1.000000
vn 0.000000 1.000000 0.000000
vn 0.000000 1.000000 0.000000
vn 0.000000 1.000000 0.000000
vn 0.000000 1.000000 0.000000
vn 0.000000 0.000000 -1.000000
vn 0.000000 0.000000 -1.000000
vn 0.000000 0.000000 -1.000000
vn 0.000000 0.000000 -1.000000
vn 0.000000 -1.000000 0.000000
vn 0.000000 -1.000000 0.000000
vn 0.000000 -1.000000 0.000000
vn 0.000000 -1.000000 0.000000
vn 1.000000 0.000000 0.000000
vn 1.000000 0.000000 0.000000
vn 1.000000 0.000000 0.000000
vn 1.000000 0.000000 0.000000
vn -1.000000 0.000000 0.000000
vn -1.000000 0.000000 0.000000
vn -1.000000 0.000000 0.000000
vn -1.000000 0.000000 0.000000
s off
g pCube62
usemtl lambert50SG
f 17/17/1 18/18/2 19/19/3 20/20/4
f 14/14/5 21/21/6 22/22/7 16/16/8
f 5/3/9 6/4/10 8/6/11 7/5/12
f 15/15/13 23/23/14 24/24/15 13/13/16
f 2/7/17 11/11/18 10/10/19 4/8/20
f 12/12/21 1/1/22 3/2/23 9/9/24
g default
v 0.540829 0.946251 -0.241241
v 0.609036 1.100191 -0.241241
v -0.176820 1.264225 -0.241241
v -0.108613 1.418165 -0.241241
v -0.176820 1.264225 -0.379766
v -0.108613 1.418165 -0.379766
v 0.540829 0.946251 -0.379766
v 0.609036 1.100191 -0.379766
v 0.609036 1.100191 -0.241241
v -0.108613 1.418165 -0.241241
v 0.609036 1.100191 -0.379766
v -0.108613 1.418165 -0.379766
v -0.176820 1.264225 -0.379766
v -0.108613 1.418165 -0.379766
v 0.540829 0.946251 -0.379766
v 0.609036 1.100191 -0.379766
v 0.540829 0.946251 -0.241241
v -0.176820 1.264225 -0.241241
v 0.540829 0.946251 -0.379766
v -0.176820 1.264225 -0.379766
v 0.540829 0.946251 -0.241241
v 0.609036 1.100191 -0.241241
v -0.176820 1.264225 -0.241241
v -0.108613 1.418165 -0.241241
vt 0.761962 0.501503
vt 0.644420 0.504780
vt 0.761962 0.705432
vt 0.644420 0.704185
vt 0.643334 0.704104
vt 0.642356 0.501353
vt 0.673293 0.504780
vt 0.673293 0.704185
vt 0.729757 0.501003
vt 0.640656 0.708002
vt 0.587245 0.501481
vt 0.588223 0.704232
vt 0.729229 0.705432
vt 0.640656 0.734660
vt 0.729229 0.501503
vt 0.729757 0.472898
vt 0.675556 0.501003
vt 0.590219 0.708002
vt 0.675556 0.472898
vt 0.590219 0.734660
vt 0.675270 0.499888
vt 0.727763 0.499888
vt 0.675270 0.705646
vt 0.727763 0.705646
vn 0.000000 0.000000 1.000000
vn 0.000000 0.000000 1.000000
vn 0.000000 0.000000 1.000000
vn 0.000000 0.000000 1.000000
vn -0.914274 0.405095 0.000000
vn -0.914274 0.405095 0.000000
vn -0.914274 0.405095 0.000000
vn -0.914274 0.405095 0.000000
vn 0.000000 0.000000 -1.000000
vn 0.000000 0.000000 -1.000000
vn 0.000000 0.000000 -1.000000
vn 0.000000 0.000000 -1.000000
vn 0.914274 -0.405095 0.000000
vn 0.914274 -0.405095 0.000000
vn 0.914274 -0.405095 0.000000
vn 0.914274 -0.405095 0.000000
vn 0.405095 0.914274 0.000000
vn 0.405095 0.914274 0.000000
vn 0.405095 0.914274 0.000000
vn 0.405095 0.914274 0.000000
vn -0.405095 -0.914274 0.000000
vn -0.405095 -0.914274 0.000000
vn -0.405095 -0.914274 0.000000
vn -0.405095 -0.914274 0.000000
s off
g pCube63
usemtl lambert50SG
f 45/45/25 46/46/26 48/48/27 47/47/28
f 42/42/29 34/34/30 38/38/31 44/44/32
f 29/29/33 36/36/34 35/35/35 31/30/36
f 43/43/37 40/40/38 33/33/39 41/41/40
f 26/26/41 32/31/42 30/32/43 28/28/44
f 39/39/45 25/25/46 27/27/47 37/37/48
g default
v 0.610312 1.568381 0.383070
v 0.536257 1.719595 0.383070
v -0.094630 1.223149 0.383070
v -0.168684 1.374363 0.383070
v -0.094630 1.223149 0.244545
v -0.168684 1.374363 0.244545
v 0.610312 1.568381 0.244545
v 0.536257 1.719595 0.244545
v 0.536257 1.719595 0.383070
v -0.168684 1.374363 0.383070
v 0.536257 1.719595 0.244545
v -0.168684 1.374363 0.244545
v 0.610312 1.568381 0.383070
v 0.536257 1.719595 0.383070
v -0.094630 1.223149 0.383070
v -0.168684 1.374363 0.383070
v -0.094630 1.223149 0.383070
v -0.094630 1.223149 0.244545
v 0.610312 1.568381 0.244545
v 0.610312 1.568381 0.383070
v -0.094630 1.223149 0.244545
v -0.168684 1.374363 0.244545
v 0.610312 1.568381 0.244545
v 0.536257 1.719595 0.244545
vt 0.995454 0.503204
vt 0.873445 0.502644
vt 0.995454 0.707148
vt 0.873445 0.705185
vt 0.908097 0.502644
vt 0.908097 0.705185
vt 0.967676 0.503204
vt 0.967676 0.707148
vt 0.956587 0.497433
vt 0.873572 0.707555
vt 0.956587 0.477609
vt 0.911645 0.706256
vt 0.820141 0.503060
vt 0.877454 0.503060
vt 0.820141 0.704977
vt 0.877454 0.704977
vt 0.824371 0.707555
vt 0.965669 0.706270
vt 0.913467 0.477609
vt 0.913467 0.497433
vt 0.824371 0.733822
vt 0.873572 0.733822
vt 0.965720 0.502428
vt 0.911696 0.502415
vn 0.000000 0.000000 1.000000
vn 0.000000 0.000000 1.000000
vn 0.000000 0.000000 1.000000
vn 0.000000 0.000000 1.000000
vn -0.898085 -0.439821 0.000000
vn -0.898085 -0.439821 0.000000
vn -0.898085 -0.439821 0.000000
vn -0.898085 -0.439821 0.000000
vn -0.000000 0.000000 -1.000000
vn -0.000000 0.000000 -1.000000
vn -0.000000 0.000000 -1.000000
vn -0.000000 0.000000 -1.000000
vn 0.898085 0.439821 0.000000
vn 0.898085 0.439821 0.000000
vn 0.898085 0.439821 0.000000
vn 0.898085 0.439821 0.000000
vn -0.439821 0.898085 0.000000
vn -0.439821 0.898085 0.000000
vn -0.439821 0.898085 0.000000
vn -0.439821 0.898085 0.000000
vn 0.439821 -0.898085 0.000000
vn 0.439821 -0.898085 0.000000
vn 0.439821 -0.898085 0.000000
vn 0.439821 -0.898085 0.000000
s off
g pCube64
usemtl lambert50SG
f 61/61/49 62/62/50 64/64/51 63/63/52
f 65/65/53 58/58/54 70/70/55 69/69/56
f 66/66/57 60/60/58 72/72/59 71/71/60
f 67/67/61 59/59/62 57/57/63 68/68/64
f 50/50/65 56/53/66 54/54/67 52/52/68
f 55/55/69 49/49/70 51/51/71 53/56/72
g default
v -0.445402 1.421860 0.214291
v -0.028811 1.421860 0.214291
v -0.445402 1.838450 0.214291
v -0.028811 1.838450 0.214291
v -0.445402 1.838450 -0.202300
v -0.028811 1.838450 -0.202300
v -0.445402 1.421860 -0.202300
v -0.028811 1.421860 -0.202300
v -0.028811 1.421860 0.214291
v -0.028811 1.838450 0.214291
v -0.028811 1.421860 -0.202300
v -0.028811 1.838450 -0.202300
v -0.445402 1.838450 -0.202300
v -0.028811 1.838450 -0.202300
v -0.445402 1.421860 -0.202300
v -0.028811 1.421860 -0.202300
v -0.445402 1.421860 0.214291
v -0.445402 1.838450 0.214291
v -0.445402 1.421860 -0.202300
v -0.445402 1.838450 -0.202300
v -0.445402 1.421860 0.214291
v -0.028811 1.421860 0.214291
v -0.445402 1.838450 0.214291
v -0.028811 1.838450 0.214291
vt 0.468397 0.767368
vt 0.117120 0.766345
vt 0.468397 0.881580
vt 0.117120 0.881923
vt 0.351978 0.882679
vt 0.351861 0.765699
vt 0.232698 0.766345
vt 0.232698 0.881923
vt 0.104871 0.981056
vt 0.234022 0.883401
vt 0.234880 0.765816
vt 0.234997 0.882797
vt 0.354185 0.881580
vt 0.234022 0.997899
vt 0.354185 0.767368
vt 0.104871 0.901788
vt 0.025603 0.981056
vt 0.119524 0.883401
vt 0.025603 0.901788
vt 0.119524 0.997899
vt 0.001066 0.766572
vt 0.116742 0.766572
vt 0.001066 0.882248
vt 0.116742 0.882248
vn 0.000000 0.000000 1.000000
vn 0.000000 0.000000 1.000000
vn 0.000000 0.000000 1.000000
vn 0.000000 0.000000 1.000000
vn 0.000000 1.000000 0.000000
vn 0.000000 1.000000 0.000000
vn 0.000000 1.000000 0.000000
vn 0.000000 1.000000 0.000000
vn 0.000000 0.000000 -1.000000
vn 0.000000 0.000000 -1.000000
vn 0.000000 0.000000 -1.000000
vn 0.000000 0.000000 -1.000000
vn 0.000000 -1.000000 0.000000
vn 0.000000 -1.000000 0.000000
vn 0.000000 -1.000000 0.000000
vn 0.000000 -1.000000 0.000000
vn 1.000000 0.000000 0.000000
vn 1.000000 0.000000 0.000000
vn 1.000000 0.000000 0.000000
vn 1.000000 0.000000 0.000000
vn -1.000000 0.000000 0.000000
vn -1.000000 0.000000 0.000000
vn -1.000000 0.000000 0.000000
vn -1.000000 0.000000 0.000000
s off
g pCube65
usemtl lambert50SG
f 93/93/73 94/94/74 96/96/75 95/95/76
f 90/90/77 82/82/78 86/86/79 92/92/80
f 77/77/81 84/84/82 83/83/83 79/78/84
f 91/91/85 88/88/86 81/81/87 89/89/88
f 74/74/89 80/79/90 78/80/91 76/76/92
f 87/87/93 73/73/94 75/75/95 85/85/96
g default
v 0.231802 0.185215 0.213636
v 0.376593 0.326050 0.213636
v -0.202630 0.631849 0.213636
v -0.057839 0.772684 0.213636
v -0.202630 0.631849 0.024307
v -0.057839 0.772684 0.024307
v 0.231802 0.185215 0.024307
v 0.376593 0.326050 0.024307
v 0.376593 0.326050 0.213636
v -0.057839 0.772684 0.213636
v 0.376593 0.326050 0.024307
v -0.057839 0.772684 0.024307
v 0.231802 0.185215 0.213636
v 0.376593 0.326050 0.213636
v -0.202630 0.631849 0.213636
v -0.057839 0.772684 0.213636
v -0.202630 0.631849 0.213636
v -0.202630 0.631849 0.024307
v 0.231802 0.185215 0.024307
v 0.231802 0.185215 0.213636
v -0.202630 0.631849 0.024307
v -0.057839 0.772684 0.024307
v 0.231802 0.185215 0.024307
v 0.376593 0.326050 0.024307
vt 0.146447 0.502478
vt 0.000612 0.502083
vt 0.146447 0.706888
vt 0.000612 0.707846
vt 0.058354 0.502083
vt 0.058354 0.707846
vt 0.088785 0.502478
vt 0.088785 0.706888
vt 0.131988 0.502724
vt 0.038013 0.711057
vt 0.131988 0.474564
vt 0.148636 0.707159
vt 0.058337 0.502418
vt 0.088825 0.502418
vt 0.058337 0.707714
vt 0.088825 0.707714
vt 0.014928 0.711057
vt 0.174760 0.707054
vt 0.103828 0.474564
vt 0.103828 0.502724
vt 0.014928 0.734142
vt 0.038013 0.734142
vt 0.173934 0.502311
vt 0.147810 0.502417
vn 0.000000 0.000000 1.000000
vn 0.000000 0.000000 1.000000
vn 0.000000 0.000000 1.000000
vn 0.000000 0.000000 1.000000
vn -0.697247 0.716831 0.000000
vn -0.697247 0.716831 0.000000
vn -0.697247 0.716831 0.000000
vn -0.697247 0.716831 0.000000
vn 0.000000 0.000000 -1.000000
vn 0.000000 0.000000 -1.000000
vn 0.000000 0.000000 -1.000000
vn 0.000000 0.000000 -1.000000
vn 0.697247 -0.716831 0.000000
vn 0.697247 -0.716831 0.000000
vn 0.697247 -0.716831 0.000000
vn 0.697247 -0.716831 0.000000
vn 0.716831 0.697247 0.000000
vn 0.716831 0.697247 0.000000
vn 0.716831 0.697247 0.000000
vn 0.716831 0.697247 0.000000
vn -0.716831 -0.697247 0.000000
vn -0.716831 -0.697247 0.000000
vn -0.716831 -0.697247 0.000000
vn -0.716831 -0.697247 0.000000
s off
g pCube66
usemtl lambert50SG
f 109/109/97 110/110/98 112/112/99 111/111/100
f 113/113/101 106/106/102 118/118/103 117/117/104
f 114/114/105 108/108/106 120/120/107 119/119/108
f 115/115/109 107/107/110 105/105/111 116/116/112
f 98/98/113 104/101/114 102/102/115 100/100/116
f 103/103/117 97/97/118 99/99/119 101/104/120
g default
v 0.258740 0.215771 -0.028711
v 0.390953 0.368475 -0.028711
v -0.212305 0.623607 -0.028711
v -0.080092 0.776311 -0.028711
v -0.212305 0.623607 -0.217711
v -0.080092 0.776311 -0.217711
v 0.258740 0.215771 -0.217711
v 0.390953 0.368475 -0.217711
v 0.258740 0.215771 -0.028711
v -0.212305 0.623607 -0.028711
v 0.258740 0.215771 -0.217711
v -0.212305 0.623607 -0.217711
v -0.212305 0.623607 -0.217711
v -0.080092 0.776311 -0.217711
v 0.390953 0.368475 -0.217711
v 0.258740 0.215771 -0.217711
v 0.390953 0.368475 -0.028711
v -0.080092 0.776311 -0.028711
v 0.390953 0.368475 -0.217711
v -0.080092 0.776311 -0.217711
v 0.258740 0.215771 -0.028711
v 0.390953 0.368475 -0.028711
v -0.212305 0.623607 -0.028711
v -0.080092 0.776311 -0.028711
vt 0.350733 0.501257
vt 0.204786 0.502337
vt 0.350733 0.706390
vt 0.204786 0.709204
vt 0.263897 0.707665
vt 0.263184 0.502174
vt 0.304579 0.501257
vt 0.304579 0.706390
vt 0.313821 0.500138
vt 0.222796 0.706609
vt 0.302004 0.501948
vt 0.302717 0.707439
vt 0.222796 0.734453
vt 0.263522 0.709204
vt 0.263522 0.502337
vt 0.313821 0.481437
vt 0.332521 0.500138
vt 0.250640 0.706609
vt 0.332521 0.481437
vt 0.250640 0.734453
vt 0.357015 0.502324
vt 0.379373 0.502324
vt 0.357015 0.707308
vt 0.379373 0.707308
vn 0.000000 0.000000 1.000000
vn 0.000000 0.000000 1.000000
vn 0.000000 0.000000 1.000000
vn 0.000000 0.000000 1.000000
vn -0.756009 0.654561 0.000000
vn -0.756009 0.654561 0.000000
vn -0.756009 0.654561 0.000000
vn -0.756009 0.654561 0.000000
vn 0.000000 0.000000 -1.000000
vn 0.000000 0.000000 -1.000000
vn 0.000000 0.000000 -1.000000
vn 0.000000 0.000000 -1.000000
vn 0.756009 -0.654561 0.000000
vn 0.756009 -0.654561 0.000000
vn 0.756009 -0.654561 0.000000
vn 0.756009 -0.654561 0.000000
vn 0.654561 0.756009 0.000000
vn 0.654561 0.756009 0.000000
vn 0.654561 0.756009 0.000000
vn 0.654561 0.756009 0.000000
vn -0.654561 -0.756009 0.000000
vn -0.654561 -0.756009 0.000000
vn -0.654561 -0.756009 0.000000
vn -0.654561 -0.756009 0.000000
s off
g pCube67
usemtl lambert50SG
f 141/141/121 142/142/122 144/144/123 143/143/124
f 130/130/125 138/138/126 140/140/127 133/133/128
f 132/132/129 126/125/130 128/126/131 131/131/132
f 136/136/133 139/139/134 137/137/135 129/129/136
f 122/122/137 135/135/138 134/134/139 124/124/140
f 127/127/141 121/121/142 123/123/143 125/128/144
